<?xml version="1.0" encoding="UTF-8" standalone="no"?>
<!DOCTYPE svg PUBLIC "-//W3C//DTD SVG 1.1//EN"
 "http://www.w3.org/Graphics/SVG/1.1/DTD/svg11.dtd">
<!-- Generated by graphviz version 15.1.0 (20260618.0150)
 -->
<!-- Title: dependency&#45;cruiser output Pages: 1 -->
<svg width="443pt" height="774pt"
 viewBox="0.00 0.00 443.00 774.00" xmlns="http://www.w3.org/2000/svg" xmlns:xlink="http://www.w3.org/1999/xlink">
<g id="graph0" class="graph" transform="scale(1 1) rotate(0) translate(4 770)">
<title>dependency&#45;cruiser output</title>
<polygon fill="white" stroke="none" points="-4,4 -4,-770 438.88,-770 438.88,4 -4,4"/>
<g id="clust1" class="cluster">
<title>cluster_@</title>
<path fill="#ffffff" stroke="black" stroke-width="2" d="M352.88,-383C352.88,-383 414.88,-383 414.88,-383 420.88,-383 426.88,-389 426.88,-395 426.88,-395 426.88,-483 426.88,-483 426.88,-489 420.88,-495 414.88,-495 414.88,-495 352.88,-495 352.88,-495 346.88,-495 340.88,-489 340.88,-483 340.88,-483 340.88,-395 340.88,-395 340.88,-389 346.88,-383 352.88,-383"/>
<text xml:space="preserve" text-anchor="middle" x="383.88" y="-482.45" font-family="Helvetica,sans-Serif" font-weight="bold" font-size="9.00">@</text>
</g>
<g id="clust2" class="cluster">
<title>cluster_@/lib</title>
<path fill="#ffffff" stroke="black" stroke-width="2" d="M360.88,-391C360.88,-391 406.88,-391 406.88,-391 412.88,-391 418.88,-397 418.88,-403 418.88,-403 418.88,-431 418.88,-431 418.88,-437 412.88,-443 406.88,-443 406.88,-443 360.88,-443 360.88,-443 354.88,-443 348.88,-437 348.88,-431 348.88,-431 348.88,-403 348.88,-403 348.88,-397 354.88,-391 360.88,-391"/>
<text xml:space="preserve" text-anchor="middle" x="383.88" y="-430.45" font-family="Helvetica,sans-Serif" font-weight="bold" font-size="9.00">lib</text>
</g>
<g id="clust3" class="cluster">
<title>cluster_node_modules</title>
<path fill="#ffffff" stroke="black" stroke-width="2" d="M212.5,-8C212.5,-8 318,-8 318,-8 324,-8 330,-14 330,-20 330,-20 330,-228 330,-228 330,-234 324,-240 318,-240 318,-240 212.5,-240 212.5,-240 206.5,-240 200.5,-234 200.5,-228 200.5,-228 200.5,-20 200.5,-20 200.5,-14 206.5,-8 212.5,-8"/>
<text xml:space="preserve" text-anchor="middle" x="265.25" y="-227.45" font-family="Helvetica,sans-Serif" font-weight="bold" font-size="9.00">node_modules</text>
</g>
<g id="clust4" class="cluster">
<title>cluster_src</title>
<path fill="#ffffff" stroke="black" stroke-width="2" d="M74,-248C74,-248 320.88,-248 320.88,-248 326.88,-248 332.88,-254 332.88,-260 332.88,-260 332.88,-746 332.88,-746 332.88,-752 326.88,-758 320.88,-758 320.88,-758 74,-758 74,-758 68,-758 62,-752 62,-746 62,-746 62,-260 62,-260 62,-254 68,-248 74,-248"/>
<text xml:space="preserve" text-anchor="middle" x="197.44" y="-745.45" font-family="Helvetica,sans-Serif" font-weight="bold" font-size="9.00">src</text>
</g>
<g id="clust5" class="cluster">
<title>cluster_src/app</title>
<path fill="#ffffff" stroke="black" stroke-width="2" d="M96.25,-350C96.25,-350 292.12,-350 292.12,-350 298.12,-350 304.12,-356 304.12,-362 304.12,-362 304.12,-510 304.12,-510 304.12,-516 298.12,-522 292.12,-522 292.12,-522 96.25,-522 96.25,-522 90.25,-522 84.25,-516 84.25,-510 84.25,-510 84.25,-362 84.25,-362 84.25,-356 90.25,-350 96.25,-350"/>
<text xml:space="preserve" text-anchor="middle" x="194.19" y="-509.45" font-family="Helvetica,sans-Serif" font-weight="bold" font-size="9.00">app</text>
</g>
<g id="clust6" class="cluster">
<title>cluster_src/app/api</title>
<path fill="#ffffff" stroke="black" stroke-width="2" d="M104.25,-384C104.25,-384 166.25,-384 166.25,-384 172.25,-384 178.25,-390 178.25,-396 178.25,-396 178.25,-458 178.25,-458 178.25,-464 172.25,-470 166.25,-470 166.25,-470 104.25,-470 104.25,-470 98.25,-470 92.25,-464 92.25,-458 92.25,-458 92.25,-396 92.25,-396 92.25,-390 98.25,-384 104.25,-384"/>
<text xml:space="preserve" text-anchor="middle" x="135.25" y="-457.45" font-family="Helvetica,sans-Serif" font-weight="bold" font-size="9.00">api</text>
</g>
<g id="clust7" class="cluster">
<title>cluster_src/app/api/[...proxy]</title>
<path fill="#ffffff" stroke="black" stroke-width="2" d="M112.25,-392C112.25,-392 158.25,-392 158.25,-392 164.25,-392 170.25,-398 170.25,-404 170.25,-404 170.25,-432 170.25,-432 170.25,-438 164.25,-444 158.25,-444 158.25,-444 112.25,-444 112.25,-444 106.25,-444 100.25,-438 100.25,-432 100.25,-432 100.25,-404 100.25,-404 100.25,-398 106.25,-392 112.25,-392"/>
<text xml:space="preserve" text-anchor="middle" x="135.25" y="-431.45" font-family="Helvetica,sans-Serif" font-weight="bold" font-size="9.00">[...proxy]</text>
</g>
<g id="clust8" class="cluster">
<title>cluster_src/components</title>
<path fill="#ffffff" stroke="black" stroke-width="2" d="M103.75,-256C103.75,-256 166.75,-256 166.75,-256 172.75,-256 178.75,-262 178.75,-268 178.75,-268 178.75,-330 178.75,-330 178.75,-336 172.75,-342 166.75,-342 166.75,-342 103.75,-342 103.75,-342 97.75,-342 91.75,-336 91.75,-330 91.75,-330 91.75,-268 91.75,-268 91.75,-262 97.75,-256 103.75,-256"/>
<text xml:space="preserve" text-anchor="middle" x="135.25" y="-329.45" font-family="Helvetica,sans-Serif" font-weight="bold" font-size="9.00">components</text>
</g>
<g id="clust9" class="cluster">
<title>cluster_src/components/ui</title>
<path fill="#ffffff" stroke="black" stroke-width="2" d="M111.75,-264C111.75,-264 158.75,-264 158.75,-264 164.75,-264 170.75,-270 170.75,-276 170.75,-276 170.75,-304 170.75,-304 170.75,-310 164.75,-316 158.75,-316 158.75,-316 111.75,-316 111.75,-316 105.75,-316 99.75,-310 99.75,-304 99.75,-304 99.75,-276 99.75,-276 99.75,-270 105.75,-264 111.75,-264"/>
<text xml:space="preserve" text-anchor="middle" x="135.25" y="-303.45" font-family="Helvetica,sans-Serif" font-weight="bold" font-size="9.00">ui</text>
</g>
<g id="clust10" class="cluster">
<title>cluster_src/lib</title>
<path fill="#ffffff" stroke="black" stroke-width="2" d="M82,-530C82,-530 312.88,-530 312.88,-530 318.88,-530 324.88,-536 324.88,-542 324.88,-542 324.88,-720 324.88,-720 324.88,-726 318.88,-732 312.88,-732 312.88,-732 82,-732 82,-732 76,-732 70,-726 70,-720 70,-720 70,-542 70,-542 70,-536 76,-530 82,-530"/>
<text xml:space="preserve" text-anchor="middle" x="197.44" y="-719.45" font-family="Helvetica,sans-Serif" font-weight="bold" font-size="9.00">lib</text>
</g>
<g id="clust11" class="cluster">
<title>cluster_src/lib/api</title>
<path fill="#ffffff" stroke="black" stroke-width="2" d="M90,-564C90,-564 180.5,-564 180.5,-564 186.5,-564 192.5,-570 192.5,-576 192.5,-576 192.5,-694 192.5,-694 192.5,-700 186.5,-706 180.5,-706 180.5,-706 90,-706 90,-706 84,-706 78,-700 78,-694 78,-694 78,-576 78,-576 78,-570 84,-564 90,-564"/>
<text xml:space="preserve" text-anchor="middle" x="135.25" y="-693.45" font-family="Helvetica,sans-Serif" font-weight="bold" font-size="9.00">api</text>
</g>
<g id="clust12" class="cluster">
<title>cluster_src/lib/auth</title>
<path fill="#ffffff" stroke="black" stroke-width="2" d="M225.62,-596C225.62,-596 304.88,-596 304.88,-596 310.88,-596 316.88,-602 316.88,-608 316.88,-608 316.88,-636 316.88,-636 316.88,-642 310.88,-648 304.88,-648 304.88,-648 225.62,-648 225.62,-648 219.62,-648 213.62,-642 213.62,-636 213.62,-636 213.62,-608 213.62,-608 213.62,-602 219.62,-596 225.62,-596"/>
<text xml:space="preserve" text-anchor="middle" x="265.25" y="-635.45" font-family="Helvetica,sans-Serif" font-weight="bold" font-size="9.00">auth</text>
</g>
<!-- @/auth -->
<g id="node1" class="node">
<title>@/auth</title>
<g id="a_node1"><a xlink:title="auth">
<path fill="#ffffcc" stroke="black" d="M404.96,-468.88C404.96,-468.88 362.79,-468.88 362.79,-468.88 359.83,-468.88 356.88,-465.92 356.88,-462.96 356.88,-462.96 356.88,-457.04 356.88,-457.04 356.88,-454.08 359.83,-451.12 362.79,-451.12 362.79,-451.12 404.96,-451.12 404.96,-451.12 407.92,-451.12 410.88,-454.08 410.88,-457.04 410.88,-457.04 410.88,-462.96 410.88,-462.96 410.88,-465.92 407.92,-468.88 404.96,-468.88"/>
<text xml:space="preserve" text-anchor="start" x="374.88" y="-457.38" font-family="Helvetica,sans-Serif" font-size="9.00">auth</text>
</a>
</g>
</g>
<!-- @/lib/utils -->
<g id="node2" class="node">
<title>@/lib/utils</title>
<g id="a_node2"><a xlink:title="utils">
<path fill="#ffffcc" stroke="black" d="M404.96,-416.88C404.96,-416.88 362.79,-416.88 362.79,-416.88 359.83,-416.88 356.88,-413.92 356.88,-410.96 356.88,-410.96 356.88,-405.04 356.88,-405.04 356.88,-402.08 359.83,-399.12 362.79,-399.12 362.79,-399.12 404.96,-399.12 404.96,-399.12 407.92,-399.12 410.88,-402.08 410.88,-405.04 410.88,-405.04 410.88,-410.96 410.88,-410.96 410.88,-413.92 407.92,-416.88 404.96,-416.88"/>
<text xml:space="preserve" text-anchor="start" x="375.62" y="-405.38" font-family="Helvetica,sans-Serif" font-size="9.00">utils</text>
</a>
</g>
</g>
<!-- auth.ts -->
<g id="node3" class="node">
<title>auth.ts</title>
<g id="a_node3"><a xlink:href="auth.ts" xlink:title="auth.ts">
<path fill="#ddfeff" stroke="black" d="M156.33,-33.88C156.33,-33.88 114.17,-33.88 114.17,-33.88 111.21,-33.88 108.25,-30.92 108.25,-27.96 108.25,-27.96 108.25,-22.04 108.25,-22.04 108.25,-19.08 111.21,-16.12 114.17,-16.12 114.17,-16.12 156.33,-16.12 156.33,-16.12 159.29,-16.12 162.25,-19.08 162.25,-22.04 162.25,-22.04 162.25,-27.96 162.25,-27.96 162.25,-30.92 159.29,-33.88 156.33,-33.88"/>
<text xml:space="preserve" text-anchor="start" x="121.75" y="-22.38" font-family="Helvetica,sans-Serif" font-size="9.00">auth.ts</text>
</a>
</g>
</g>
<!-- node_modules/next&#45;auth -->
<g id="node4" class="node">
<title>node_modules/next&#45;auth</title>
<g id="a_node4"><a xlink:href="https://www.npmjs.com/package/next-auth" xlink:title="next&#45;auth">
<polygon fill="#c40b0a" fill-opacity="0.101961" stroke="black" points="292.38,-33.88 240.1,-33.88 238.12,-31.9 238.12,-16.12 290.4,-16.12 292.38,-18.1 292.38,-33.88"/>
<polyline fill="none" stroke="black" points="290.4,-31.9 238.12,-31.9"/>
<polyline fill="none" stroke="black" points="290.4,-31.9 290.4,-16.12"/>
<polyline fill="none" stroke="black" points="290.4,-31.9 292.38,-33.88"/>
<text xml:space="preserve" text-anchor="start" x="246.12" y="-22.38" font-family="Helvetica,sans-Serif" font-size="9.00" fill="#c40b0a">next&#45;auth</text>
</a>
</g>
</g>
<!-- auth.ts&#45;&gt;node_modules/next&#45;auth -->
<g id="edge1" class="edge">
<title>auth.ts&#45;&gt;node_modules/next&#45;auth</title>
<path fill="none" stroke="#000000" stroke-opacity="0.200000" d="M162.46,-25C182.09,-25 209.11,-25 230.37,-25"/>
<polygon fill="#000000" fill-opacity="0.200000" stroke="#000000" stroke-opacity="0.200000" points="230.12,-27.1 236.12,-25 230.12,-22.9 230.12,-27.1"/>
</g>
<!-- node_modules/@base&#45;ui -->
<g id="node5" class="node">
<title>node_modules/@base&#45;ui</title>
<g id="a_node5"><a xlink:href="https://www.npmjs.com/package/" xlink:title="@base&#45;ui">
<polygon fill="#c40b0a" fill-opacity="0.101961" stroke="black" points="293.12,-63.88 239.35,-63.88 237.38,-61.9 237.38,-46.12 291.15,-46.12 293.12,-48.1 293.12,-63.88"/>
<polyline fill="none" stroke="black" points="291.15,-61.9 237.38,-61.9"/>
<polyline fill="none" stroke="black" points="291.15,-61.9 291.15,-46.12"/>
<polyline fill="none" stroke="black" points="291.15,-61.9 293.12,-63.88"/>
<text xml:space="preserve" text-anchor="start" x="245.38" y="-52.38" font-family="Helvetica,sans-Serif" font-size="9.00" fill="#c40b0a">@base&#45;ui</text>
</a>
</g>
</g>
<!-- node_modules/class&#45;variance&#45;authority -->
<g id="node6" class="node">
<title>node_modules/class&#45;variance&#45;authority</title>
<g id="a_node6"><a xlink:href="https://www.npmjs.com/package/class-variance-authority" xlink:title="class&#45;variance&#45;authority">
<polygon fill="#c40b0a" fill-opacity="0.101961" stroke="black" points="322,-93.88 210.47,-93.88 208.5,-91.9 208.5,-76.12 320.03,-76.12 322,-78.1 322,-93.88"/>
<polyline fill="none" stroke="black" points="320.03,-91.9 208.5,-91.9"/>
<polyline fill="none" stroke="black" points="320.03,-91.9 320.03,-76.12"/>
<polyline fill="none" stroke="black" points="320.03,-91.9 322,-93.88"/>
<text xml:space="preserve" text-anchor="start" x="216.5" y="-82.38" font-family="Helvetica,sans-Serif" font-size="9.00" fill="#c40b0a">class&#45;variance&#45;authority</text>
</a>
</g>
</g>
<!-- node_modules/clsx -->
<g id="node7" class="node">
<title>node_modules/clsx</title>
<g id="a_node7"><a xlink:href="https://www.npmjs.com/package/clsx" xlink:title="clsx">
<polygon fill="#c40b0a" fill-opacity="0.101961" stroke="black" points="292.25,-153.88 240.22,-153.88 238.25,-151.9 238.25,-136.12 290.28,-136.12 292.25,-138.1 292.25,-153.88"/>
<polyline fill="none" stroke="black" points="290.28,-151.9 238.25,-151.9"/>
<polyline fill="none" stroke="black" points="290.28,-151.9 290.28,-136.12"/>
<polyline fill="none" stroke="black" points="290.28,-151.9 292.25,-153.88"/>
<text xml:space="preserve" text-anchor="start" x="257.38" y="-142.38" font-family="Helvetica,sans-Serif" font-size="9.00" fill="#c40b0a">clsx</text>
</a>
</g>
</g>
<!-- node_modules/next -->
<g id="node8" class="node">
<title>node_modules/next</title>
<g id="a_node8"><a xlink:href="https://www.npmjs.com/package/next" xlink:title="next">
<polygon fill="#c40b0a" fill-opacity="0.101961" stroke="black" points="292.25,-123.88 240.22,-123.88 238.25,-121.9 238.25,-106.12 290.28,-106.12 292.25,-108.1 292.25,-123.88"/>
<polyline fill="none" stroke="black" points="290.28,-121.9 238.25,-121.9"/>
<polyline fill="none" stroke="black" points="290.28,-121.9 290.28,-106.12"/>
<polyline fill="none" stroke="black" points="290.28,-121.9 292.25,-123.88"/>
<text xml:space="preserve" text-anchor="start" x="256.62" y="-112.38" font-family="Helvetica,sans-Serif" font-size="9.00" fill="#c40b0a">next</text>
</a>
</g>
</g>
<!-- node_modules/tailwind&#45;merge -->
<g id="node9" class="node">
<title>node_modules/tailwind&#45;merge</title>
<g id="a_node9"><a xlink:href="https://www.npmjs.com/package/tailwind-merge" xlink:title="tailwind&#45;merge">
<polygon fill="#c40b0a" fill-opacity="0.101961" stroke="black" points="303.62,-183.88 228.85,-183.88 226.88,-181.9 226.88,-166.12 301.65,-166.12 303.62,-168.1 303.62,-183.88"/>
<polyline fill="none" stroke="black" points="301.65,-181.9 226.88,-181.9"/>
<polyline fill="none" stroke="black" points="301.65,-181.9 301.65,-166.12"/>
<polyline fill="none" stroke="black" points="301.65,-181.9 303.62,-183.88"/>
<text xml:space="preserve" text-anchor="start" x="234.88" y="-172.38" font-family="Helvetica,sans-Serif" font-size="9.00" fill="#c40b0a">tailwind&#45;merge</text>
</a>
</g>
</g>
<!-- node_modules/zod -->
<g id="node10" class="node">
<title>node_modules/zod</title>
<g id="a_node10"><a xlink:href="https://www.npmjs.com/package/zod" xlink:title="zod">
<polygon fill="#c40b0a" fill-opacity="0.101961" stroke="black" points="292.25,-213.88 240.22,-213.88 238.25,-211.9 238.25,-196.12 290.28,-196.12 292.25,-198.1 292.25,-213.88"/>
<polyline fill="none" stroke="black" points="290.28,-211.9 238.25,-211.9"/>
<polyline fill="none" stroke="black" points="290.28,-211.9 290.28,-196.12"/>
<polyline fill="none" stroke="black" points="290.28,-211.9 292.25,-213.88"/>
<text xml:space="preserve" text-anchor="start" x="257.75" y="-202.38" font-family="Helvetica,sans-Serif" font-size="9.00" fill="#c40b0a">zod</text>
</a>
</g>
</g>
<!-- proxy.ts -->
<g id="node11" class="node">
<title>proxy.ts</title>
<g id="a_node11"><a xlink:href="proxy.ts" xlink:title="proxy.ts">
<path fill="#ddfeff" stroke="black" d="M48.08,-33.88C48.08,-33.88 5.92,-33.88 5.92,-33.88 2.96,-33.88 0,-30.92 0,-27.96 0,-27.96 0,-22.04 0,-22.04 0,-19.08 2.96,-16.12 5.92,-16.12 5.92,-16.12 48.08,-16.12 48.08,-16.12 51.04,-16.12 54,-19.08 54,-22.04 54,-22.04 54,-27.96 54,-27.96 54,-30.92 51.04,-33.88 48.08,-33.88"/>
<text xml:space="preserve" text-anchor="start" x="11.25" y="-22.38" font-family="Helvetica,sans-Serif" font-size="9.00">proxy.ts</text>
</a>
</g>
</g>
<!-- proxy.ts&#45;&gt;auth.ts -->
<g id="edge2" class="edge">
<title>proxy.ts&#45;&gt;auth.ts</title>
<path fill="none" stroke="#000000" stroke-width="2" stroke-opacity="0.200000" d="M54.26,-25C67.8,-25 84.5,-25 99.12,-25"/>
<polygon fill="#000000" fill-opacity="0.200000" stroke="#000000" stroke-width="2" stroke-opacity="0.200000" points="98.89,-27.1 104.89,-25 98.89,-22.9 98.89,-27.1"/>
</g>
<!-- src/app/api/[...proxy]/route.ts -->
<g id="node12" class="node">
<title>src/app/api/[...proxy]/route.ts</title>
<g id="a_node12"><a xlink:href="src/app/api/[...proxy]/route.ts" xlink:title="route.ts">
<path fill="#ddfeff" stroke="black" d="M156.33,-417.88C156.33,-417.88 114.17,-417.88 114.17,-417.88 111.21,-417.88 108.25,-414.92 108.25,-411.96 108.25,-411.96 108.25,-406.04 108.25,-406.04 108.25,-403.08 111.21,-400.12 114.17,-400.12 114.17,-400.12 156.33,-400.12 156.33,-400.12 159.29,-400.12 162.25,-403.08 162.25,-406.04 162.25,-406.04 162.25,-411.96 162.25,-411.96 162.25,-414.92 159.29,-417.88 156.33,-417.88"/>
<text xml:space="preserve" text-anchor="start" x="120.25" y="-406.38" font-family="Helvetica,sans-Serif" font-size="9.00">route.ts</text>
</a>
</g>
</g>
<!-- src/app/api/[...proxy]/route.ts&#45;&gt;@/auth -->
<g id="edge3" class="edge">
<title>src/app/api/[...proxy]/route.ts&#45;&gt;@/auth</title>
<path fill="none" stroke="#000000" stroke-width="2" stroke-opacity="0.200000" d="M162.48,-403.3C203.25,-396.05 282.38,-388.54 332.88,-426 340.56,-431.7 333.91,-439.43 340.88,-446 343.12,-448.12 345.7,-449.92 348.45,-451.45"/>
<polygon fill="#000000" fill-opacity="0.200000" stroke="#000000" stroke-width="2" stroke-opacity="0.200000" points="347.43,-453.29 353.76,-453.83 349.15,-449.46 347.43,-453.29"/>
</g>
<!-- src/app/api/[...proxy]/route.ts&#45;&gt;node_modules/next -->
<g id="edge4" class="edge">
<title>src/app/api/[...proxy]/route.ts&#45;&gt;node_modules/next</title>
<path fill="none" stroke="#000000" stroke-opacity="0.200000" d="M162.57,-409.56C173.52,-408.32 185.32,-404.76 192.5,-396 211.25,-373.14 181.8,-152.9 200.5,-130 207.82,-121.04 219.38,-116.84 230.67,-115.02"/>
<polygon fill="#000000" fill-opacity="0.200000" stroke="#000000" stroke-opacity="0.200000" points="230.78,-117.12 236.49,-114.32 230.29,-112.95 230.78,-117.12"/>
</g>
<!-- src/app/globals.css -->
<g id="node13" class="node">
<title>src/app/globals.css</title>
<g id="a_node13"><a xlink:href="src/app/globals.css" xlink:title="globals.css">
<path fill="#ffffcc" stroke="black" d="M290.21,-495.88C290.21,-495.88 240.29,-495.88 240.29,-495.88 237.33,-495.88 234.38,-492.92 234.38,-489.96 234.38,-489.96 234.38,-484.04 234.38,-484.04 234.38,-481.08 237.33,-478.12 240.29,-478.12 240.29,-478.12 290.21,-478.12 290.21,-478.12 293.17,-478.12 296.12,-481.08 296.12,-484.04 296.12,-484.04 296.12,-489.96 296.12,-489.96 296.12,-492.92 293.17,-495.88 290.21,-495.88"/>
<text xml:space="preserve" text-anchor="start" x="242.38" y="-484.38" font-family="Helvetica,sans-Serif" font-size="9.00">globals.css</text>
</a>
</g>
</g>
<!-- src/app/layout.tsx -->
<g id="node14" class="node">
<title>src/app/layout.tsx</title>
<g id="a_node14"><a xlink:href="src/app/layout.tsx" xlink:title="layout.tsx">
<path fill="#bbfeff" stroke="black" d="M156.46,-495.88C156.46,-495.88 114.04,-495.88 114.04,-495.88 111.08,-495.88 108.12,-492.92 108.12,-489.96 108.12,-489.96 108.12,-484.04 108.12,-484.04 108.12,-481.08 111.08,-478.12 114.04,-478.12 114.04,-478.12 156.46,-478.12 156.46,-478.12 159.42,-478.12 162.38,-481.08 162.38,-484.04 162.38,-484.04 162.38,-489.96 162.38,-489.96 162.38,-492.92 159.42,-495.88 156.46,-495.88"/>
<text xml:space="preserve" text-anchor="start" x="116.12" y="-484.38" font-family="Helvetica,sans-Serif" font-size="9.00">layout.tsx</text>
</a>
</g>
</g>
<!-- src/app/layout.tsx&#45;&gt;@/lib/utils -->
<g id="edge6" class="edge">
<title>src/app/layout.tsx&#45;&gt;@/lib/utils</title>
<path fill="none" stroke="#000000" stroke-width="2" stroke-opacity="0.200000" d="M162.71,-478.36C201.67,-465.65 276.81,-441.25 340.88,-421 343.26,-420.25 345.73,-419.47 348.21,-418.69"/>
<polygon fill="#000000" fill-opacity="0.200000" stroke="#000000" stroke-width="2" stroke-opacity="0.200000" points="348.65,-420.76 353.76,-416.97 347.4,-416.75 348.65,-420.76"/>
</g>
<!-- src/app/layout.tsx&#45;&gt;node_modules/next -->
<g id="edge7" class="edge">
<title>src/app/layout.tsx&#45;&gt;node_modules/next</title>
<path fill="none" stroke="#000000" stroke-opacity="0.200000" d="M157.83,-477.77C170.35,-471.16 185.07,-460.96 192.5,-447 200.77,-431.45 189.39,-143.67 200.5,-130 207.79,-121.03 219.36,-116.81 230.64,-115"/>
<polygon fill="none" stroke="#000000" stroke-opacity="0.200000" points="230.76,-117.1 236.47,-114.3 230.26,-112.93 230.76,-117.1"/>
</g>
<!-- src/app/layout.tsx&#45;&gt;src/app/globals.css -->
<g id="edge5" class="edge">
<title>src/app/layout.tsx&#45;&gt;src/app/globals.css</title>
<path fill="none" stroke="#000000" stroke-width="2" stroke-opacity="0.200000" d="M162.77,-487C180.81,-487 204.97,-487 225.2,-487"/>
<polygon fill="#000000" fill-opacity="0.200000" stroke="#000000" stroke-width="2" stroke-opacity="0.200000" points="225.15,-489.1 231.15,-487 225.15,-484.9 225.15,-489.1"/>
</g>
<!-- src/app/page.tsx -->
<g id="node15" class="node">
<title>src/app/page.tsx</title>
<g id="a_node15"><a xlink:href="src/app/page.tsx" xlink:title="page.tsx">
<path fill="#bbfeff" stroke="black" d="M156.33,-375.88C156.33,-375.88 114.17,-375.88 114.17,-375.88 111.21,-375.88 108.25,-372.92 108.25,-369.96 108.25,-369.96 108.25,-364.04 108.25,-364.04 108.25,-361.08 111.21,-358.12 114.17,-358.12 114.17,-358.12 156.33,-358.12 156.33,-358.12 159.29,-358.12 162.25,-361.08 162.25,-364.04 162.25,-364.04 162.25,-369.96 162.25,-369.96 162.25,-372.92 159.29,-375.88 156.33,-375.88"/>
<text xml:space="preserve" text-anchor="start" x="118" y="-364.38" font-family="Helvetica,sans-Serif" font-size="9.00">page.tsx</text>
</a>
</g>
</g>
<!-- src/app/page.tsx&#45;&gt;node_modules/next -->
<g id="edge8" class="edge">
<title>src/app/page.tsx&#45;&gt;node_modules/next</title>
<path fill="none" stroke="#000000" stroke-opacity="0.200000" d="M153.39,-357.7C166.68,-349.45 184.18,-336.08 192.5,-319 201.71,-300.1 187.1,-146.2 200.5,-130 207.87,-121.09 219.45,-116.89 230.73,-115.07"/>
<polygon fill="#000000" fill-opacity="0.200000" stroke="#000000" stroke-opacity="0.200000" points="230.84,-117.17 236.55,-114.37 230.34,-113 230.84,-117.17"/>
</g>
<!-- src/components/ui/button.tsx -->
<g id="node16" class="node">
<title>src/components/ui/button.tsx</title>
<g id="a_node16"><a xlink:href="src/components/ui/button.tsx" xlink:title="button.tsx">
<path fill="#bbfeff" stroke="black" d="M156.83,-289.88C156.83,-289.88 113.67,-289.88 113.67,-289.88 110.71,-289.88 107.75,-286.92 107.75,-283.96 107.75,-283.96 107.75,-278.04 107.75,-278.04 107.75,-275.08 110.71,-272.12 113.67,-272.12 113.67,-272.12 156.83,-272.12 156.83,-272.12 159.79,-272.12 162.75,-275.08 162.75,-278.04 162.75,-278.04 162.75,-283.96 162.75,-283.96 162.75,-286.92 159.79,-289.88 156.83,-289.88"/>
<text xml:space="preserve" text-anchor="start" x="115.75" y="-278.38" font-family="Helvetica,sans-Serif" font-size="9.00">button.tsx</text>
</a>
</g>
</g>
<!-- src/components/ui/button.tsx&#45;&gt;@/lib/utils -->
<g id="edge9" class="edge">
<title>src/components/ui/button.tsx&#45;&gt;@/lib/utils</title>
<path fill="none" stroke="#000000" stroke-width="2" stroke-opacity="0.200000" d="M154.38,-290.34C197.59,-312.59 306.72,-368.78 356.9,-394.63"/>
<polygon fill="#000000" fill-opacity="0.200000" stroke="#000000" stroke-width="2" stroke-opacity="0.200000" points="355.73,-396.38 362.02,-397.26 357.65,-392.65 355.73,-396.38"/>
</g>
<!-- src/components/ui/button.tsx&#45;&gt;node_modules/@base&#45;ui -->
<g id="edge10" class="edge">
<title>src/components/ui/button.tsx&#45;&gt;node_modules/@base&#45;ui</title>
<path fill="none" stroke="#000000" stroke-opacity="0.200000" d="M136.05,-271.76C135.86,-238.92 139.88,-126.83 200.5,-70 208.45,-62.54 219.39,-58.57 229.96,-56.51"/>
<polygon fill="#000000" fill-opacity="0.200000" stroke="#000000" stroke-opacity="0.200000" points="230.08,-58.62 235.68,-55.61 229.43,-54.47 230.08,-58.62"/>
</g>
<!-- src/components/ui/button.tsx&#45;&gt;node_modules/class&#45;variance&#45;authority -->
<g id="edge11" class="edge">
<title>src/components/ui/button.tsx&#45;&gt;node_modules/class&#45;variance&#45;authority</title>
<path fill="none" stroke="#000000" stroke-opacity="0.200000" d="M136.58,-271.83C138.16,-242.1 147.34,-147.61 200.5,-100 201.11,-99.45 201.74,-98.92 202.39,-98.41"/>
<polygon fill="#000000" fill-opacity="0.200000" stroke="#000000" stroke-opacity="0.200000" points="203.49,-100.2 207.3,-95.12 201.15,-96.71 203.49,-100.2"/>
</g>
<!-- src/lib/api/client.mutator.ts -->
<g id="node17" class="node">
<title>src/lib/api/client.mutator.ts</title>
<g id="a_node17"><a xlink:href="src/lib/api/client.mutator.ts" xlink:title="client.mutator.ts">
<path fill="#ccffcc" stroke="black" d="M169.21,-589.88C169.21,-589.88 101.29,-589.88 101.29,-589.88 98.33,-589.88 95.38,-586.92 95.38,-583.96 95.38,-583.96 95.38,-578.04 95.38,-578.04 95.38,-575.08 98.33,-572.12 101.29,-572.12 101.29,-572.12 169.21,-572.12 169.21,-572.12 172.17,-572.12 175.12,-575.08 175.12,-578.04 175.12,-578.04 175.12,-583.96 175.12,-583.96 175.12,-586.92 172.17,-589.88 169.21,-589.88"/>
<text xml:space="preserve" text-anchor="start" x="103.38" y="-578.38" font-family="Helvetica,sans-Serif" font-size="9.00">client.mutator.ts</text>
</a>
</g>
</g>
<!-- src/lib/api/error&#45;handler.utils.ts -->
<g id="node18" class="node">
<title>src/lib/api/error&#45;handler.utils.ts</title>
<g id="a_node18"><a xlink:href="src/lib/api/error-handler.utils.ts" xlink:title="error&#45;handler.utils.ts">
<path fill="#ccffcc" stroke="black" d="M178.21,-619.88C178.21,-619.88 92.29,-619.88 92.29,-619.88 89.33,-619.88 86.38,-616.92 86.38,-613.96 86.38,-613.96 86.38,-608.04 86.38,-608.04 86.38,-605.08 89.33,-602.12 92.29,-602.12 92.29,-602.12 178.21,-602.12 178.21,-602.12 181.17,-602.12 184.12,-605.08 184.12,-608.04 184.12,-608.04 184.12,-613.96 184.12,-613.96 184.12,-616.92 181.17,-619.88 178.21,-619.88"/>
<text xml:space="preserve" text-anchor="start" x="94.38" y="-608.38" font-family="Helvetica,sans-Serif" font-size="9.00">error&#45;handler.utils.ts</text>
</a>
</g>
</g>
<!-- src/lib/api/fetch&#45;and&#45;validate.ts -->
<g id="node19" class="node">
<title>src/lib/api/fetch&#45;and&#45;validate.ts</title>
<g id="a_node19"><a xlink:href="src/lib/api/fetch-and-validate.ts" xlink:title="fetch&#45;and&#45;validate.ts">
<path fill="#ddfeff" stroke="black" d="M178.58,-649.88C178.58,-649.88 91.92,-649.88 91.92,-649.88 88.96,-649.88 86,-646.92 86,-643.96 86,-643.96 86,-638.04 86,-638.04 86,-635.08 88.96,-632.12 91.92,-632.12 91.92,-632.12 178.58,-632.12 178.58,-632.12 181.54,-632.12 184.5,-635.08 184.5,-638.04 184.5,-638.04 184.5,-643.96 184.5,-643.96 184.5,-646.92 181.54,-649.88 178.58,-649.88"/>
<text xml:space="preserve" text-anchor="start" x="94" y="-638.38" font-family="Helvetica,sans-Serif" font-size="9.00">fetch&#45;and&#45;validate.ts</text>
</a>
</g>
</g>
<!-- src/lib/api/fetch&#45;and&#45;validate.ts&#45;&gt;node_modules/zod -->
<g id="edge12" class="edge">
<title>src/lib/api/fetch&#45;and&#45;validate.ts&#45;&gt;node_modules/zod</title>
<path fill="none" stroke="#000000" stroke-opacity="0.200000" d="M184.98,-632.8C187.81,-630.94 190.37,-628.69 192.5,-626 202.12,-613.84 197.04,-362.11 200.5,-347 211.65,-298.37 239.88,-246.02 254.75,-220.61"/>
<polygon fill="none" stroke="#000000" stroke-opacity="0.200000" points="256.53,-221.72 257.79,-215.49 252.92,-219.58 256.53,-221.72"/>
</g>
<!-- src/lib/api/ssr.mutator.ts -->
<g id="node20" class="node">
<title>src/lib/api/ssr.mutator.ts</title>
<g id="a_node20"><a xlink:href="src/lib/api/ssr.mutator.ts" xlink:title="ssr.mutator.ts">
<path fill="#ddfeff" stroke="black" d="M164.33,-679.88C164.33,-679.88 106.17,-679.88 106.17,-679.88 103.21,-679.88 100.25,-676.92 100.25,-673.96 100.25,-673.96 100.25,-668.04 100.25,-668.04 100.25,-665.08 103.21,-662.12 106.17,-662.12 106.17,-662.12 164.33,-662.12 164.33,-662.12 167.29,-662.12 170.25,-665.08 170.25,-668.04 170.25,-668.04 170.25,-673.96 170.25,-673.96 170.25,-676.92 167.29,-679.88 164.33,-679.88"/>
<text xml:space="preserve" text-anchor="start" x="108.25" y="-668.38" font-family="Helvetica,sans-Serif" font-size="9.00">ssr.mutator.ts</text>
</a>
</g>
</g>
<!-- src/lib/auth/token&#45;manager.ts -->
<g id="node21" class="node">
<title>src/lib/auth/token&#45;manager.ts</title>
<g id="a_node21"><a xlink:href="src/lib/auth/token-manager.ts" xlink:title="token&#45;manager.ts">
<path fill="#ddfeff" stroke="black" d="M302.96,-621.88C302.96,-621.88 227.54,-621.88 227.54,-621.88 224.58,-621.88 221.62,-618.92 221.62,-615.96 221.62,-615.96 221.62,-610.04 221.62,-610.04 221.62,-607.08 224.58,-604.12 227.54,-604.12 227.54,-604.12 302.96,-604.12 302.96,-604.12 305.92,-604.12 308.88,-607.08 308.88,-610.04 308.88,-610.04 308.88,-615.96 308.88,-615.96 308.88,-618.92 305.92,-621.88 302.96,-621.88"/>
<text xml:space="preserve" text-anchor="start" x="229.62" y="-610.38" font-family="Helvetica,sans-Serif" font-size="9.00">token&#45;manager.ts</text>
</a>
</g>
</g>
<!-- src/lib/api/ssr.mutator.ts&#45;&gt;src/lib/auth/token&#45;manager.ts -->
<g id="edge13" class="edge">
<title>src/lib/api/ssr.mutator.ts&#45;&gt;src/lib/auth/token&#45;manager.ts</title>
<path fill="none" stroke="#000000" stroke-width="2" stroke-opacity="0.200000" d="M170.67,-663.45C178.01,-661.4 185.61,-658.91 192.5,-656 210.89,-648.22 230.23,-636.39 244.19,-627.1"/>
<polygon fill="#000000" fill-opacity="0.200000" stroke="#000000" stroke-width="2" stroke-opacity="0.200000" points="245.06,-629.05 248.85,-623.95 242.7,-625.58 245.06,-629.05"/>
</g>
<!-- src/lib/auth/token&#45;manager.ts&#45;&gt;@/auth -->
<g id="edge14" class="edge">
<title>src/lib/auth/token&#45;manager.ts&#45;&gt;@/auth</title>
<path fill="none" stroke="#000000" stroke-width="2" stroke-opacity="0.200000" d="M273.2,-603.89C292.35,-578.75 346.13,-508.2 370.55,-476.17"/>
<polygon fill="#000000" fill-opacity="0.200000" stroke="#000000" stroke-width="2" stroke-opacity="0.200000" points="372.02,-477.71 373.98,-471.67 368.68,-475.16 372.02,-477.71"/>
</g>
<!-- src/lib/utils.ts -->
<g id="node22" class="node">
<title>src/lib/utils.ts</title>
<g id="a_node22"><a xlink:href="src/lib/utils.ts" xlink:title="utils.ts">
<path fill="#ddfeff" stroke="black" d="M156.33,-555.88C156.33,-555.88 114.17,-555.88 114.17,-555.88 111.21,-555.88 108.25,-552.92 108.25,-549.96 108.25,-549.96 108.25,-544.04 108.25,-544.04 108.25,-541.08 111.21,-538.12 114.17,-538.12 114.17,-538.12 156.33,-538.12 156.33,-538.12 159.29,-538.12 162.25,-541.08 162.25,-544.04 162.25,-544.04 162.25,-549.96 162.25,-549.96 162.25,-552.92 159.29,-555.88 156.33,-555.88"/>
<text xml:space="preserve" text-anchor="start" x="122.5" y="-544.38" font-family="Helvetica,sans-Serif" font-size="9.00">utils.ts</text>
</a>
</g>
</g>
<!-- src/lib/utils.ts&#45;&gt;node_modules/clsx -->
<g id="edge15" class="edge">
<title>src/lib/utils.ts&#45;&gt;node_modules/clsx</title>
<path fill="none" stroke="#000000" stroke-opacity="0.200000" d="M162.65,-543.25C173.75,-540.23 185.65,-534.8 192.5,-525 204.12,-508.37 187.73,-175.76 200.5,-160 207.78,-151.01 219.34,-146.8 230.63,-144.99"/>
<polygon fill="#000000" fill-opacity="0.200000" stroke="#000000" stroke-opacity="0.200000" points="230.75,-147.09 236.46,-144.29 230.25,-142.92 230.75,-147.09"/>
</g>
<!-- src/lib/utils.ts&#45;&gt;node_modules/tailwind&#45;merge -->
<g id="edge16" class="edge">
<title>src/lib/utils.ts&#45;&gt;node_modules/tailwind&#45;merge</title>
<path fill="none" stroke="#000000" stroke-opacity="0.200000" d="M162.64,-543.24C173.74,-540.23 185.64,-534.79 192.5,-525 203.18,-509.75 188.77,-204.45 200.5,-190 205.38,-183.98 212.18,-180.11 219.53,-177.66"/>
<polygon fill="#000000" fill-opacity="0.200000" stroke="#000000" stroke-opacity="0.200000" points="219.7,-179.79 224.94,-176.19 218.6,-175.74 219.7,-179.79"/>
</g>
</g>
</svg>
